<svg xmlns="http://www.w3.org/2000/svg" xmlns:xlink="http://www.w3.org/1999/xlink" width="1419" height="368" viewBox="0 0 1419 368">
  <defs>
    <circle id="logo_indigo-b" cx="163" cy="163" r="162.818"/>
    <filter id="logo_indigo-a" width="120.9%" height="120.9%" x="-10.4%" y="-9.8%" filterUnits="objectBoundingBox">
      <feOffset dy="2" in="SourceAlpha" result="shadowOffsetOuter1"/>
      <feGaussianBlur in="shadowOffsetOuter1" result="shadowBlurOuter1" stdDeviation="11"/>
      <feColorMatrix in="shadowBlurOuter1" values="0 0 0 0 0   0 0 0 0 0   0 0 0 0 0  0 0 0 0.1 0"/>
    </filter>
    <path id="logo_indigo-c" d="M164.11016,94.3310367 C164.129541,43.0134241 130.941635,6.21135427 121.668773,0.325163456 C120.199367,-0.607379144 119.370029,0.682248926 119.044476,1.48212334 C108.883617,26.4470852 93.2201202,46.5048153 84.9625434,59.1184237 C69.1641538,44.2312533 40.8098066,28.3753559 3.15819836,15.2245335 C0.706835903,14.3683302 -0.0574402042,16.1964702 0.213248406,17.3724813 C6.08409029,42.8888876 7.11548496,59.3511061 7.65298597,82.6210793 C7.81675581,89.7439869 7.88945828,97.3765245 8.1258835,106.060576 C9.08077564,141.134384 26.2821713,162.549781 30.1709275,166.323236 C49.2618828,189.656466 74.947947,198.030567 90.7472831,218.418075 C103.445648,236.117755 101.066061,242.33271 102.730376,242.347326 C104.39469,242.361892 102.015261,236.114679 114.692666,218.418075 C130.532194,197.855685 156.341535,189.219934 175.48154,166.323236 C198.725898,138.516605 211.296138,109.60427 216.224698,81.5690627 C216.530239,79.8310501 215.615487,79.0081225 213.924168,79.3623466 C209.436486,80.1954352 185.459103,83.9935609 164.11016,94.3310367 Z"/>
    <linearGradient id="logo_indigo-d" x1="50%" x2="50%" y1=".788%" y2="100%">
      <stop offset="0%" stop-color="#5A5AD2"/>
      <stop offset="25.661%" stop-color="#756AD5"/>
      <stop offset="85.145%" stop-color="#B991DE"/>
      <stop offset="100%" stop-color="#D2A0E1"/>
    </linearGradient>
    <linearGradient id="logo_indigo-h" x1="59.231%" x2="41.387%" y1="13.099%" y2="100%">
      <stop offset="0%" stop-color="#05A5D2"/>
      <stop offset="16.267%" stop-color="#20B3D4"/>
      <stop offset="40.562%" stop-color="#5AD2D7"/>
      <stop offset="71.12%" stop-color="#90E7E6"/>
      <stop offset="100%" stop-color="#B4F5F0"/>
    </linearGradient>
    <path id="logo_indigo-g" d="M101.094296,233.236713 C99.8914381,224.601916 98.5248993,218.014168 96.1745662,211.299542 C91.6704789,198.431894 85.4397163,187.894635 78.9400201,175.105864 C66.9979375,151.60773 49.3820587,111.328951 84.9612078,59.1184237 C93.2187847,46.5048153 108.882281,26.4470852 119.043141,1.48212334 C119.368693,0.682248926 120.198031,-0.607379144 121.667438,0.325163456 C130.939683,6.21096317 164.123795,43.0085337 164.108833,94.3208077 C164.07491,94.3556442 137.465337,105.537373 120.813414,129.668996 C115.398187,137.167829 111.060676,145.562645 108.014055,155.13458 C104.967435,164.706515 103.211706,175.455569 102.960046,187.662878 C102.947809,188.362169 102.631277,211.842246 102.377492,226.460281 C102.278704,232.150462 102.205134,235.773824 102.147802,238.035794 L102.049057,241.496629 C101.951481,240.73972 101.535434,237.266764 101.094296,233.236713 Z"/>
    <filter id="logo_indigo-f" width="204.8%" height="148.4%" x="-58.4%" y="-20.5%" filterUnits="objectBoundingBox">
      <feMorphology in="SourceAlpha" operator="dilate" radius=".5" result="shadowSpreadOuter1"/>
      <feOffset dx="-6" dy="3" in="shadowSpreadOuter1" result="shadowOffsetOuter1"/>
      <feGaussianBlur in="shadowOffsetOuter1" result="shadowBlurOuter1" stdDeviation="16"/>
      <feColorMatrix in="shadowBlurOuter1" values="0 0 0 0 0   0 0 0 0 0   0 0 0 0 0  0 0 0 0.31 0"/>
    </filter>
    <linearGradient id="logo_indigo-k" x1="74.547%" x2="19.562%" y1="28.941%" y2="68.628%">
      <stop offset="0%" stop-color="#FF5F69"/>
      <stop offset="16.797%" stop-color="#FF5F69"/>
      <stop offset="66.332%" stop-color="#FFA866"/>
      <stop offset="100%" stop-color="#FFD764"/>
    </linearGradient>
    <path id="logo_indigo-j" d="M175.482371,166.323236 C156.342366,189.219934 130.533025,197.855685 114.693497,218.418075 C102.016092,236.114679 104.395521,242.361892 102.731207,242.347326 C102.384837,242.344264 102.213617,242.072677 102.045183,241.484905 C102.040772,240.714397 102.175172,237.578239 102.368235,226.457837 C102.623716,211.742136 102.954361,188.048058 102.962212,187.662878 C103.465533,163.248261 109.985127,144.666662 120.815581,129.668996 C137.467504,105.537373 164.077077,94.3556442 164.077077,94.3556442 C164.347983,94.2277471 164.617214,94.0956962 164.88483,93.9597188 C186.035675,83.9023432 209.491462,80.1853839 213.924999,79.3623466 C215.616318,79.0081225 216.53107,79.8310501 216.225529,81.5690627 C213.761249,95.5866666 209.386549,109.823552 202.722374,124.031866 C196.058199,138.240179 187.10455,152.419921 175.482371,166.323236 Z"/>
    <filter id="logo_indigo-i" width="191.9%" height="164.2%" x="-51.2%" y="-30.4%" filterUnits="objectBoundingBox">
      <feMorphology in="SourceAlpha" operator="dilate" radius=".5" result="shadowSpreadOuter1"/>
      <feOffset dx="-6" dy="3" in="shadowSpreadOuter1" result="shadowOffsetOuter1"/>
      <feGaussianBlur in="shadowOffsetOuter1" result="shadowBlurOuter1" stdDeviation="16"/>
      <feComposite in="shadowBlurOuter1" in2="SourceAlpha" operator="out" result="shadowBlurOuter1"/>
      <feColorMatrix in="shadowBlurOuter1" values="0 0 0 0 0   0 0 0 0 0   0 0 0 0 0  0 0 0 0.31 0"/>
    </filter>
  </defs>
  <g fill="none" fill-rule="evenodd" transform="translate(10 21)">
    <path fill="#595DCB" fill-rule="nonzero" d="M949.4,138.7 C957,138.6 967.1,136.3 973.3,126.1 C973.9,125 975.2,124.5 976.5,124.7 L992.5,127.6 C993.6,127.8 994.2,129 993.8,130 C993.8,130.2 993.7,130.3 993.6,130.5 C985.5,148.2 969.5,158.4 949.6,158.6 C949.4,158.6 949.2,158.6 949,158.6 C935,158.6 921.4,153.4 912.5,144 C903,133.9 897.8,119 897.6,101 C897.4,83.1 902.2,68.1 911.6,57.7 C920.4,48 933.1,42.5 947.4,42.4 C961.6,42.3 974.5,47.5 983.5,57.1 C991,65.1 995.8,76 997.6,88.9 C998.1,92.4 998.4,96.1 998.4,100 C998.4,101 998.4,101.9 998.4,102.9 C998.3,104.6 996.9,106 995.2,106 L978.2,106 L918.7,106 C918.2,106 917.9,106.4 917.9,106.9 C919.8,127.2 931.6,138.7 949,138.7 C949.1,138.7 949.3,138.7 949.4,138.7 Z M918.7,88 C918.6,88.5 918.9,88.9 919.4,89 L976.3,89 C976.8,89 977.2,88.5 977.1,88 C975.7,80.9 972.9,75.1 968.9,70.9 C962.3,63.8 953.7,62.4 947.6,62.5 C932,62.7 921.9,71.8 918.7,88 Z M873.5,120.3 C873.5,132 880.8,137.5 886.2,139.8 C887,140.2 887.4,141.1 887.1,142 L881.2,157.5 C880.9,158.4 879.8,158.9 878.9,158.5 C871,155.1 864.7,149.9 860.4,143.4 C860,142.9 859.3,142.9 858.9,143.3 C858.8,143.4 858.6,143.6 858.5,143.7 C849.3,153.4 836.1,158.7 821.4,158.7 C806.5,158.7 793.6,153.6 784.3,143.9 C774.3,133.6 769.1,118.6 769.1,100.5 C769.1,82.4 774.4,67.4 784.3,57.1 C793.7,47.4 806.5,42.3 821.4,42.3 C833,42.3 843.6,45.6 852.1,51.7 C852.7,52.1 853.6,51.7 853.6,50.9 C853.6,28.9 853.6,8.8 853.6,2.9 C853.6,2 854.3,1.2 855.3,1.2 L871.8,1.2 C872.7,1.2 873.5,1.9 873.5,2.9 C873.5,13.4 873.5,69 873.5,99.9 C873.5,100.1 873.5,100.3 873.5,100.5 C873.5,100.7 873.5,100.9 873.5,101.1 C873.5,111.3 873.5,118.6 873.5,120.3 Z M821.3,138.7 C827.8,138.7 837,137.2 843.9,129.8 C850.1,123.3 853.4,113.3 853.5,100.7 C853.5,100.5 853.5,100.2 853.5,100 C853.4,87.5 850.1,77.4 843.9,70.9 C837,63.6 827.8,62.1 821.3,62.1 C800.8,62.1 789.1,76.1 789.1,100.4 C789.1,124.8 800.8,138.7 821.3,138.7 Z M698.8,159 C683.9,159 671.1,153.9 661.7,144.2 C651.8,133.9 646.5,118.9 646.5,100.8 C646.5,82.7 651.7,67.7 661.7,57.4 C671,47.7 683.9,42.6 698.8,42.6 C713.5,42.6 726.7,47.9 735.9,57.6 C745.8,68 751,82.9 751,100.9 C751,118.9 745.8,133.9 735.9,144.2 C726.6,153.7 713.4,159 698.8,159 Z M698.8,62.4 C678.3,62.4 666.6,76.3 666.6,100.7 C666.6,125 678.3,139 698.8,139 C705.3,139 714.5,137.5 721.4,130.2 C727.7,123.6 731,113.5 731,100.7 C731,87.9 727.7,77.8 721.4,71.2 C714.4,64 705.2,62.4 698.8,62.4 Z M602.6,2.8 C602.6,1.9 603.4,1.1 604.3,1.1 L621.9,1.1 C622.8,1.1 623.6,1.8 623.6,2.8 L623.6,141.4 L623.6,154.4 C623.6,155.3 622.9,156.1 621.9,156.1 L609.9,156.1 C608.9,156.1 608,155.6 607.4,154.8 L602.6,148.3 L526,45.7 C525.6,45.1 524.6,45.4 524.6,46.2 L524.6,154.2 C524.6,155.1 523.9,155.9 522.9,155.9 L505.3,155.9 C504.4,155.9 503.6,155.2 503.6,154.2 L503.6,15.5 L503.6,2.8 C503.6,1.9 504.3,1.1 505.3,1.1 L517.5,1.1 C518.5,1.1 519.4,1.6 520,2.4 L524.6,8.6 L601.2,111.2 C601.6,111.8 602.6,111.5 602.6,110.7 L602.6,2.8 Z M460.7,120.3 C460.7,132 468,137.5 473.4,139.8 C474.2,140.2 474.6,141.1 474.3,142 L468.4,157.5 C468.1,158.4 467,158.9 466.1,158.5 C458.2,155.1 451.9,149.9 447.6,143.4 C447.2,142.9 446.5,142.9 446.1,143.3 C446,143.4 445.8,143.6 445.7,143.7 C436.5,153.4 423.3,158.7 408.6,158.7 C393.7,158.7 380.8,153.6 371.5,143.9 C361.5,133.6 356.3,118.6 356.3,100.5 C356.3,82.4 361.6,67.4 371.5,57.1 C380.9,47.4 393.7,42.3 408.6,42.3 C420.2,42.3 430.8,45.6 439.3,51.7 C439.9,52.1 440.8,51.7 440.8,50.9 C440.8,28.9 440.8,8.8 440.8,2.9 C440.8,2 441.5,1.2 442.5,1.2 L459,1.2 C459.9,1.2 460.7,1.9 460.7,2.9 C460.7,13.4 460.7,69 460.7,99.9 C460.7,100.1 460.7,100.3 460.7,100.5 C460.7,100.7 460.7,100.9 460.7,101.1 C460.7,111.3 460.7,118.6 460.7,120.3 Z M408.5,138.7 C415,138.7 424.2,137.2 431.1,129.8 C437.3,123.3 440.6,113.3 440.7,100.7 C440.7,100.5 440.7,100.2 440.7,100 C440.6,87.5 437.3,77.4 431.1,70.9 C424.2,63.6 415,62.1 408.5,62.1 C388,62.1 376.3,76.1 376.3,100.4 C376.3,124.8 388,138.7 408.5,138.7 Z M319.1,52.7 C328.8,60.7 333.9,72.1 333.7,85.6 L333.7,154.3 C333.7,155.2 333,156 332,156 L315.5,156 C314.6,156 313.8,155.3 313.8,154.3 L313.8,85.6 C313.8,68.2 299.9,62.1 288,62.1 C276,62.1 262.1,68.3 262.1,85.6 L262.1,154.3 C262.1,155.2 261.4,156 260.4,156 L243.9,156 C243,156 242.2,155.3 242.2,154.3 L242.2,85.4 C242.2,71.6 234.3,65.9 228.6,63.7 C227.8,63.4 227.3,62.5 227.6,61.6 L232.6,45.8 C232.9,44.9 234,44.4 234.9,44.7 C241.6,47.1 247.4,51.1 251.9,56.2 C252.3,56.6 252.9,56.6 253.3,56.2 C254.5,55 255.7,53.8 257.1,52.7 C265.4,45.8 276.4,42.1 288.1,42.1 C299.9,42.1 310.9,45.9 319.1,52.7 Z M187.2,156 C186.3,156 185.5,155.3 185.5,154.3 L185.5,47 C185.5,46.1 186.2,45.3 187.2,45.3 L203.7,45.3 C204.6,45.3 205.4,46 205.4,47 L205.4,154.3 C205.4,155.2 204.7,156 203.7,156 L187.2,156 Z M195.5,25.7 C188.706898,25.7 183.2,20.1931024 183.2,13.4 C183.2,6.60689758 188.706898,1.1 195.5,1.1 C202.293102,1.1 207.8,6.60689758 207.8,13.4 C207.8,20.1931024 202.293102,25.7 195.5,25.7 Z M20.6,154.4 C20.5,155.3 19.8,156 18.8,156 L2.2,156 C1.2,156 0.4,155.1 0.5,154.1 L13.2,2.6 C13.2,1.7 14,1 14.9,1 L34.2,1 C34.9,1 35.5,1.4 35.8,2 L78.7,96.2 C78.9,96.8 79.8,96.8 80.1,96.2 L122.7,2.8 C123.2,1.6 124.4,0.9 125.6,0.9 L144,0.9 C144.9,0.9 145.6,1.6 145.7,2.5 L158.4,154.1 C158.5,155.1 157.7,156 156.7,156 L140.1,156 C139.2,156 138.5,155.3 138.4,154.4 L128.9,41.2 C128.8,40.4 127.7,40.2 127.4,40.9 L90.5,121.9 L88.6,126.1 C85.1,133.9 74,133.9 70.4,126.1 L68.5,121.9 L31.6,41 C31.3,40.3 30.2,40.5 30.1,41.3 L20.6,154.4 Z" transform="translate(410 85)"/>
    <g fill-rule="nonzero">
      <use fill="#000" filter="url(#logo_indigo-a)" xlink:href="#logo_indigo-b"/>
      <use fill="#FFF" xlink:href="#logo_indigo-b"/>
    </g>
    <g transform="translate(63.854 49.118)">
      <mask id="logo_indigo-e" fill="#fff">
        <use xlink:href="#logo_indigo-c"/>
      </mask>
      <path fill="url(#logo_indigo-d)" d="M84.9617172,59.1176452 C69.1631653,44.2307006 40.8091504,28.3751267 3.15819836,15.2245335 C0.706835903,14.3683302 -0.0574402042,16.1964702 0.213248406,17.3724813 C3.14866935,30.1306845 4.87422849,40.6253407 5.93312002,50.8391927 C6.99201155,61.0530448 7.38423547,70.9860927 7.65298597,82.6210793 C7.81675581,89.7439869 7.88945828,97.3765245 8.1258835,106.060576 C9.08077564,141.134384 26.2821713,162.549781 30.1709275,166.323236 C49.2618828,189.656466 74.947947,198.030567 90.7472831,218.418075 C100.802919,232.434173 101.403461,239.248423 102.044353,241.484905 C102.044353,241.47662 102.044353,241.468062 102.044353,241.459224 C101.938492,240.631209 101.528551,237.203884 101.094296,233.236713 C99.8914381,224.601916 98.5248993,218.014168 96.1745662,211.299542 C91.6704789,198.431894 85.4397163,187.894635 78.9400201,175.105864 C66.9979375,151.60773 49.3820587,111.328951 84.9612078,59.1184237 L84.9617172,59.1176452 L84.9617172,59.1176452 Z" mask="url(#logo_indigo-e)"/>
      <g mask="url(#logo_indigo-e)">
        <use fill="#000" filter="url(#logo_indigo-f)" xlink:href="#logo_indigo-g"/>
        <use fill="url(#logo_indigo-h)" xlink:href="#logo_indigo-g"/>
      </g>
      <g mask="url(#logo_indigo-e)">
        <use fill="#000" filter="url(#logo_indigo-i)" xlink:href="#logo_indigo-j"/>
        <use fill="url(#logo_indigo-k)" xlink:href="#logo_indigo-j"/>
      </g>
    </g>
  </g>
</svg>
