<svg xmlns="http://www.w3.org/2000/svg" width="149.102" height="26.001" viewBox="0 0 149.102 26.001"><g transform="translate(-4.116 10.227)"><g transform="translate(2.116 -10.227)"><g transform="translate(0 0)"><g transform="translate(0)"><path d="M23.848.772a9.484,9.484,0,0,1,9.4,9.418v.158a9.489,9.489,0,0,1-9.4,9.577H13.776L1.8,26.555c-.893.494-1.3.121-.908-.836l2.373-5.793H2.027A1.157,1.157,0,0,1,.894,18.195l2.653-6.478H2.027A1.157,1.157,0,0,1,.894,9.986L3.958,2.5A2.986,2.986,0,0,1,6.508.772Zm-9.814,7.3h-.128a2.966,2.966,0,0,0-2.542,1.736h0l-1.176,2.912c-.387.96.077,1.459,1.036,1.116h0l2.914-1.04a4.183,4.183,0,0,1,.615-.164H22.6a2.261,2.261,0,0,0,2.24-2.28h0v-.065A2.259,2.259,0,0,0,22.6,8.069H14.033Z" transform="translate(1.256 -0.772)" fill="#00ffe2" fill-rule="evenodd"/></g></g><path d="M9.619.3a8.837,8.837,0,0,1-3.937-.83,6.142,6.142,0,0,1-2.6-2.321,6.419,6.419,0,0,1-.913-3.423A8.8,8.8,0,0,1,3.35-10.842a8.184,8.184,0,0,1,3.3-3.118,10.084,10.084,0,0,1,4.777-1.113,8.837,8.837,0,0,1,3.938.83,6.142,6.142,0,0,1,2.6,2.321A6.419,6.419,0,0,1,18.88-8.5a8.8,8.8,0,0,1-1.187,4.568A8.184,8.184,0,0,1,14.4-.814,10.084,10.084,0,0,1,9.619.3Zm.42-4.011a3.484,3.484,0,0,0,2.047-.609A3.9,3.9,0,0,0,13.42-5.959a5.423,5.423,0,0,0,.462-2.247,2.831,2.831,0,0,0-.766-2.079A2.83,2.83,0,0,0,11-11.062a3.484,3.484,0,0,0-2.048.609A3.9,3.9,0,0,0,7.624-8.815a5.423,5.423,0,0,0-.462,2.247,2.831,2.831,0,0,0,.766,2.079A2.83,2.83,0,0,0,10.039-3.712ZM44.184-14.7,36.54,0H31.227l-.84-7.749L26.355,0H21.042L19.278-14.7h4.893l.945,8.379L29.484-14.7h4.557l.84,8.505L39.312-14.7Zm5.163,3.738L49.011-9.24h6.216l-.714,3.57H48.276L47.9-3.738h7.371L54.513,0H42.291l2.94-14.7H57.18l-.756,3.738ZM71.393-9.87a5.73,5.73,0,0,1-1.039,3.412,6.15,6.15,0,0,1-2.93,2.174L69.881,0H64.736L62.657-3.7H61.439L60.7,0H55.748l2.94-14.7h6.594a7.1,7.1,0,0,1,4.5,1.27A4.28,4.28,0,0,1,71.393-9.87Zm-5.019.483q0-1.491-1.848-1.491H62.867l-.693,3.444h2.037a2.291,2.291,0,0,0,1.6-.515A1.844,1.844,0,0,0,66.374-9.387Z" transform="translate(34 18.002)" fill="#fff"/><path d="M90.762-14.7,81.606,0H76.734L73.458-14.7H78.54l1.827,8.568L85.68-14.7Zm7.382,0a7.176,7.176,0,0,1,4.557,1.281,4.321,4.321,0,0,1,1.617,3.591,5.843,5.843,0,0,1-.913,3.255,6,6,0,0,1-2.6,2.184,9.29,9.29,0,0,1-3.917.777H94.343L93.629,0H88.673l2.94-14.7ZM97.136-7.434a2.291,2.291,0,0,0,1.6-.515A1.844,1.844,0,0,0,99.3-9.387q0-1.491-1.848-1.491H95.792L95.1-7.434Zm12.632,7.8a15.128,15.128,0,0,1-3.591-.41A9.662,9.662,0,0,1,103.4-1.124l1.911-3.654a9.8,9.8,0,0,0,4.956,1.365,3.589,3.589,0,0,0,1.449-.231q.5-.231.5-.63,0-.378-.514-.609a10.307,10.307,0,0,0-1.628-.5,20.061,20.061,0,0,1-2.436-.767,4.508,4.508,0,0,1-1.691-1.2,3.074,3.074,0,0,1-.724-2.132,4.874,4.874,0,0,1,.893-2.908,5.692,5.692,0,0,1,2.572-1.932,10.512,10.512,0,0,1,3.969-.683,13.635,13.635,0,0,1,3.055.325,8.529,8.529,0,0,1,2.447.935l-1.785,3.612a6.7,6.7,0,0,0-1.9-.819,8.356,8.356,0,0,0-2.132-.273,3.526,3.526,0,0,0-1.6.294q-.567.294-.567.693t.514.63a10.129,10.129,0,0,0,1.69.5,18.527,18.527,0,0,1,2.4.714,4.348,4.348,0,0,1,1.69,1.176,3.031,3.031,0,0,1,.714,2.1,4.755,4.755,0,0,1-.9,2.877,5.8,5.8,0,0,1-2.583,1.922A10.45,10.45,0,0,1,109.767.367Z" transform="translate(32.935 18.002)" fill="#00ffe2"/></g></g></svg>